<?xml version="1.0" encoding="UTF-8" standalone="no"?>
<svg width="200" height="60" viewBox="0 0 200 60" fill="none" xmlns="http://www.w3.org/2000/svg">
  <path d="M37.5 10L25 5L12.5 10L0 5V45L12.5 50L25 45L37.5 50L50 45V5L37.5 10Z" fill="#009444"/>
  <path d="M70 20.5H77L85 45H79L77.5 40H69.5L68 45H62L70 20.5ZM76 36L73.5 27L71 36H76Z" fill="#333333"/>
  <path d="M90 20.5H96V40.5H107V45H90V20.5Z" fill="#333333"/>
  <path d="M112 20.5H118V40.5H129V45H112V20.5Z" fill="#333333"/>
  <path d="M134 20.5H140V45H134V20.5Z" fill="#333333"/>
  <path d="M147 20.5H153L161 34V20.5H167V45H161L153 31.5V45H147V20.5Z" fill="#333333"/>
  <path d="M175 20.5H182L190 45H184L182.5 40H174.5L173 45H167L175 20.5ZM181 36L178.5 27L176 36H181Z" fill="#333333"/>
</svg>
