<?xml version="1.0" encoding="UTF-8" standalone="no"?>
<svg xmlns="http://www.w3.org/2000/svg" viewBox="0 0 300 100">
  <path fill="#003087" d="M45.5 20h209c13 0 23.5 10.5 23.5 23.5S267.5 67 254.5 67h-209C32.5 67 22 56.5 22 43.5S32.5 20 45.5 20z"/>
  <path fill="#FFFFFF" d="M60.2 51.8V35h4.9c4.5 0 6.7 2.1 6.7 6.2 0 4.1-2.2 6.2-6.7 6.2h-2.3v4.4h-2.6zm4.7-6.2c2.8 0 4.2-1.3 4.2-4 0-2.7-1.4-4-4.2-4h-2.1v8h2.1zM86.8 51.8l-1.1-3.1h-5.4l-1.1 3.1h-2.7l5.2-16.8h2.6l5.2 16.8h-2.7zm-3.8-11.7l-2 5.9h4l-2-5.9zM92.3 51.8V35h2.6v14.1h7v2.7h-9.6zM112.8 51.8l-1.1-3.1h-5.4l-1.1 3.1h-2.7l5.2-16.8h2.6l5.2 16.8h-2.7zm-3.8-11.7l-2 5.9h4l-2-5.9zM118.3 51.8V35h4.9c4.5 0 6.7 2.1 6.7 6.2 0 4.1-2.2 6.2-6.7 6.2h-2.3v4.4h-2.6zm4.7-6.2c2.8 0 4.2-1.3 4.2-4 0-2.7-1.4-4-4.2-4h-2.1v8h2.1zM144.9 51.8l-1.1-3.1h-5.4l-1.1 3.1h-2.7l5.2-16.8h2.6l5.2 16.8h-2.7zm-3.8-11.7l-2 5.9h4l-2-5.9zM150.4 51.8V35h2.6v16.8h-2.6zM167.2 51.8l-6.8-11.7V51.8h-2.5V35h2.4l6.8 11.7V35h2.5v16.8h-2.4zM185.7 51.8l-1.1-3.1h-5.4l-1.1 3.1h-2.7l5.2-16.8h2.6l5.2 16.8h-2.7zm-3.8-11.7l-2 5.9h4l-2-5.9zM191.2 51.8V35h2.6v14.1h7v2.7h-9.6zM211.7 51.8l-1.1-3.1h-5.4l-1.1 3.1h-2.7l5.2-16.8h2.6l5.2 16.8h-2.7zm-3.8-11.7l-2 5.9h4l-2-5.9zM217.2 51.8V35h4.9c4.5 0 6.7 2.1 6.7 6.2 0 4.1-2.2 6.2-6.7 6.2h-2.3v4.4h-2.6zm4.7-6.2c2.8 0 4.2-1.3 4.2-4 0-2.7-1.4-4-4.2-4h-2.1v8h2.1z"/>
</svg>
