<?xml version="1.0" encoding="utf-8"?>
<svg version="1.1" xmlns="http://www.w3.org/2000/svg" xmlns:xlink="http://www.w3.org/1999/xlink" x="0px" y="0px"
	 viewBox="0 0 400 150" style="enable-background:new 0 0 400 150;" xml:space="preserve">
<style type="text/css">
	.st0{fill:#004C9B;}
</style>
<g>
	<path class="st0" d="M92.9,28.7L65.2,1v17.5H47.7L20,46.2h17.5v17.5L65.2,91V73.5h17.5l27.7-27.7H92.9V28.7z M65.2,66.4V48.9H47.7
		l17.5-17.5v17.5h17.5L65.2,66.4z"/>
	<path class="st0" d="M130.1,46.1h15.9v7.1h0.2c3.1-5.5,8.2-8.2,15.3-8.2c11.3,0,17,6.8,17,20.5v27.7h-16.6V69.1
		c0-7-2.7-10.5-8.2-10.5c-5.4,0-8.1,3.5-8.1,10.5v24.1h-16.6V46.1H130.1z"/>
	<path class="st0" d="M219.7,91.8c-5.8,1.5-10.6,2.3-14.4,2.3c-14.8,0-22.2-7.2-22.2-21.5c0-13.6,7.9-20.4,23.6-20.4
		c3,0,7.3,0.4,12.9,1.3v-1.3c0-5.7-3.2-8.5-9.7-8.5c-6.3,0-12.7,1.8-19.2,5.5l-5.7-11.4c8-4.6,16.8-6.9,26.5-6.9
		c15.5,0,23.3,7.2,23.3,21.5v31.9h-15L219.7,91.8L219.7,91.8z M219.7,63.7c-3.5-0.6-6.3-0.9-8.5-0.9c-6.5,0-9.8,2.7-9.8,8.2
		c0,5.1,2.8,7.7,8.5,7.7c3.3,0,6.5-0.4,9.8-1.3V63.7z"/>
	<path class="st0" d="M250.8,30.4H267v62.8h-16.3V30.4H250.8z"/>
	<path class="st0" d="M311.3,91.8c-5.8,1.5-10.6,2.3-14.4,2.3c-14.8,0-22.2-7.2-22.2-21.5c0-13.6,7.9-20.4,23.6-20.4
		c3,0,7.3,0.4,12.9,1.3v-1.3c0-5.7-3.2-8.5-9.7-8.5c-6.3,0-12.7,1.8-19.2,5.5l-5.7-11.4c8-4.6,16.8-6.9,26.5-6.9
		c15.5,0,23.3,7.2,23.3,21.5v31.9h-15L311.3,91.8L311.3,91.8z M311.3,63.7c-3.5-0.6-6.3-0.9-8.5-0.9c-6.5,0-9.8,2.7-9.8,8.2
		c0,5.1,2.8,7.7,8.5,7.7c3.3,0,6.5-0.4,9.8-1.3V63.7z"/>
	<path class="st0" d="M342.3,30.4h16.3v62.8h-16.3V30.4z"/>
</g>
<g>
	<path class="st0" d="M130.1,111.4h4.7l7.3,19.5l7.3-19.5h4.7l-9.8,25.7h-4.5L130.1,111.4z"/>
	<path class="st0" d="M163.7,127.5l-2.4,9.6h-4.4l8.7-25.7h5.5l8.7,25.7h-4.4l-2.4-9.6H163.7z M169.9,124.1l-2.6-10.3l-2.6,10.3
		H169.9z"/>
	<path class="st0" d="M186.1,111.4h4.3v22.3h11v3.4h-15.3V111.4z"/>
	<path class="st0" d="M207.9,111.4h15.3v3.4h-11v7.7h10.2v3.4h-10.2v7.8h11.3v3.4h-15.6V111.4z"/>
	<path class="st0" d="M257.9,119.2c0,5.1-2.4,8.1-7.1,9l7.8,8.9h-5.5l-7.3-8.6h-3.7v8.6h-4.3v-25.7h8.7
		C253.4,111.4,257.9,114,257.9,119.2z M242.1,125.1h3.9c4.3,0,6.5-1.9,6.5-5.8c0-3.6-2.2-5.4-6.5-5.4h-3.9V125.1z"/>
	<path class="st0" d="M265.2,111.4h4.3v25.7h-4.3V111.4z"/>
</g>
</svg>
